<svg version="1.1" id="Layer_1" xmlns="http://www.w3.org/2000/svg" xmlns:xlink="http://www.w3.org/1999/xlink" x="0px" y="0px"
	 width="100%" viewBox="0 0 1324 1510" enable-background="new 0 0 1324 1510" xml:space="preserve">
<path fill="black" opacity="1.000000" stroke="none" 
	d="
M1.000000,380.000000 
	C1.000000,253.333359 1.000000,127.166710 1.000000,1.000051 
	C442.333252,1.000034 883.666504,1.000034 1324.999756,1.000017 
	C1324.999878,504.333130 1324.999878,1007.666260 1325.000000,1510.999512 
	C883.666931,1510.999756 442.333862,1510.999756 1.000406,1510.999878 
	C1.000000,1134.166626 1.000000,757.333313 1.000000,380.000000 
M274.289185,645.888306 
	C274.856476,645.927734 275.423798,645.967102 276.614105,646.381348 
	C298.742340,652.484619 320.870575,658.587891 343.689880,665.033936 
	C359.463654,669.340088 375.237427,673.646179 391.639771,678.317932 
	C394.089996,678.925903 396.540222,679.533875 399.501251,680.570923 
	C399.939209,680.596436 400.377167,680.622009 401.288361,680.960083 
	C401.844482,681.031433 402.400574,681.102722 403.507111,681.616882 
	C408.927704,683.136414 414.347076,684.660278 419.769104,686.174744 
	C435.261292,690.501831 450.146698,689.316467 464.190430,681.193115 
	C464.190430,681.193115 464.210419,681.300720 464.912781,681.180481 
	C465.840027,680.508911 466.715912,679.748413 467.702087,679.178955 
	C488.578552,667.123291 493.839813,646.338318 498.151031,624.614868 
	C498.151031,624.614868 498.108063,624.256653 498.745361,623.958069 
	C500.073090,620.664246 501.400818,617.370361 503.222137,613.552551 
	C504.132355,611.533752 505.042603,609.514893 506.423401,607.092773 
	C523.389587,574.485962 548.729248,550.967712 582.899170,537.298645 
	C616.280457,523.945068 649.908447,524.818115 684.209961,534.592590 
	C760.871399,556.437927 837.752930,577.512756 914.568665,598.815125 
	C970.043884,614.199463 1025.573364,629.388367 1081.049561,644.768982 
	C1127.877686,657.751953 1174.614136,671.069946 1221.514771,683.783752 
	C1230.057983,686.099548 1239.258423,687.533752 1248.048584,687.117798 
	C1279.205444,685.643433 1302.173218,657.754944 1297.200317,627.233276 
	C1291.274292,590.862122 1281.293701,555.465698 1269.135010,520.685547 
	C1242.088135,443.317017 1203.098145,372.534088 1152.240723,308.261292 
	C1098.261230,240.042862 1034.156982,183.241989 960.062317,137.718155 
	C901.576721,101.784554 839.229736,74.655312 773.010498,56.564888 
	C759.396729,52.845749 745.517334,50.099197 731.117249,46.531898 
	C730.377014,46.418339 729.636719,46.304775 728.193237,45.878422 
	C727.556946,45.688290 726.931335,45.444344 726.282837,45.315765 
	C694.238098,38.961967 661.957092,34.261791 629.342957,32.218716 
	C615.570374,31.355949 601.748047,31.288759 587.041687,30.657892 
	C585.543640,30.628242 584.045593,30.572678 582.547546,30.572624 
	C427.361725,30.567034 272.175873,30.563498 116.990044,30.581707 
	C114.335480,30.582018 111.680954,30.848251 108.390892,30.789816 
	C105.637054,31.530586 102.883224,32.271358 99.523666,32.920044 
	C99.326416,32.972973 99.129166,33.025906 98.224312,32.935905 
	C95.375076,33.410332 92.218491,33.256241 89.731865,34.472206 
	C80.810143,38.834942 71.292709,42.581791 63.494991,48.522999 
	C43.516888,63.744637 31.243549,84.432167 31.149584,109.652283 
	C30.642416,245.773071 30.915796,381.896759 30.929632,518.019470 
	C30.929869,520.347412 31.050686,522.675415 30.952591,525.926880 
	C30.941412,527.745850 30.966986,529.565918 30.913221,531.383606 
	C30.492462,545.609192 34.474583,558.396423 43.653133,570.170288 
	C44.994305,571.568420 46.335480,572.966492 47.937492,574.974060 
	C54.512985,579.356689 60.536167,585.410461 67.770004,587.801086 
	C87.574257,594.346069 107.888062,599.349243 128.514755,605.269592 
	C129.082764,605.355713 129.650772,605.441833 130.826080,605.979248 
	C140.225449,608.538391 149.624817,611.097534 159.627884,613.978271 
	C160.079391,614.013855 160.530899,614.049500 161.376541,614.488708 
	C161.918060,614.583984 162.459564,614.679260 163.675873,615.107422 
	C170.127548,616.832336 176.579224,618.557190 183.556244,620.794312 
	C184.042587,620.808289 184.528946,620.822266 185.665253,621.194092 
	C203.584412,626.176758 221.497482,631.181458 239.426102,636.129822 
	C245.606659,637.835754 251.826065,639.400757 258.555298,641.377319 
	C259.165222,641.500305 259.775146,641.623291 260.459717,641.812622 
	C260.459717,641.812622 260.551361,641.772949 261.139618,642.133423 
	C265.094269,643.142883 269.048889,644.152405 273.332489,645.515503 
	C273.332489,645.515503 273.812256,645.567932 274.289185,645.888306 
M604.658020,1493.061523 
	C622.262146,1491.787476 639.915894,1490.989380 657.461792,1489.157837 
	C737.481323,1480.804810 813.956055,1459.437378 886.821045,1425.376587 
	C988.829285,1377.692749 1075.333496,1310.017700 1146.392700,1222.698608 
	C1200.403931,1156.328125 1241.314575,1082.603638 1269.498047,1001.795349 
	C1280.453003,970.384949 1263.841675,938.039368 1231.652832,929.081909 
	C1137.050049,902.755920 1042.422241,876.519836 947.786072,850.314148 
	C935.765503,846.985596 923.802246,842.760559 911.525513,841.182373 
	C881.023560,837.261353 855.552063,855.523071 847.171936,885.843018 
	C843.757446,898.197021 840.241943,910.523132 836.311157,923.079346 
	C825.519592,940.067078 812.912964,955.409241 796.741821,967.657593 
	C757.119995,997.667847 712.929749,1007.724792 664.698364,996.072632 
	C629.618103,987.597656 595.003052,977.188965 560.207947,967.543823 
	C507.600494,952.961121 455.024994,938.263428 402.420715,923.669250 
	C354.154083,910.278381 305.861023,896.982666 257.591156,883.603333 
	C206.765213,869.515442 156.040802,855.050171 105.095741,841.408142 
	C81.491478,835.087341 60.933426,841.633728 44.582951,860.081055 
	C33.417732,872.678101 30.602972,887.842163 30.616413,904.209473 
	C30.753149,1070.694458 30.692421,1237.179443 30.731649,1403.664429 
	C30.733021,1409.486694 30.703009,1415.380493 31.529955,1421.119629 
	C37.619911,1463.384888 73.981560,1494.204956 118.701881,1494.037109 
	C260.186920,1493.505737 401.675201,1493.844849 543.162231,1493.820557 
	C555.481995,1493.818481 567.801819,1493.619141 581.015930,1493.547852 
	C581.607666,1493.473267 582.199463,1493.398804 583.498840,1493.629395 
	C590.184021,1493.428711 596.869141,1493.228149 604.658020,1493.061523 
z"/>
<path fill="white" opacity="1.000000" stroke="none" 
	d="
M160.982407,614.085083 
	C160.530899,614.049500 160.079391,614.013855 159.245926,613.515869 
	C157.908997,612.354248 156.954025,611.654968 155.857941,610.781006 
	C155.511429,610.385132 155.277359,610.200317 154.613800,610.040649 
	C153.144196,609.999634 152.075409,609.969849 150.953339,609.719421 
	C150.270584,609.344421 149.641113,609.190125 148.678940,609.010742 
	C147.545517,608.654053 146.744812,608.322388 145.820221,607.812378 
	C145.507721,607.410156 145.284439,607.229004 144.686157,607.081665 
	C143.891907,607.064758 143.438004,607.056702 142.818420,606.877319 
	C142.098694,606.804993 141.544662,606.903931 140.595627,606.972412 
	C136.873337,606.470642 133.546066,605.999268 130.218796,605.527893 
	C129.650772,605.441833 129.082764,605.355713 128.137024,604.778198 
	C126.513252,603.601501 125.340691,602.665527 124.008255,602.275208 
	C118.715706,600.724670 113.373260,599.344604 107.973541,597.662720 
	C107.264839,597.287598 106.631897,597.151184 105.592308,597.000732 
	C101.961693,596.207275 98.688507,595.587952 95.523857,594.615417 
	C88.737297,592.529724 82.145195,589.428284 75.218498,588.277649 
	C66.401604,586.813049 59.509758,582.484070 52.842411,576.809204 
	C52.509460,576.375488 52.276058,576.171326 51.867203,575.812012 
	C51.513523,575.376038 51.271626,575.168762 50.939606,574.686523 
	C50.231411,573.591370 49.582161,572.807495 48.706444,571.811035 
	C47.318676,570.726257 46.157375,569.854126 45.089233,568.698242 
	C44.151413,567.259827 43.120434,566.105164 42.067257,564.623352 
	C42.013515,563.860107 41.981976,563.424011 41.824471,562.804932 
	C41.508484,562.391541 41.287216,562.196594 40.812630,561.781738 
	C39.380272,559.345398 38.169979,557.164368 36.966545,554.605835 
	C36.637997,552.823364 36.302586,551.418396 35.967079,549.640015 
	C35.624031,547.838440 35.281078,546.410339 34.815735,544.798950 
	C34.507607,544.384644 34.290764,544.187927 33.887764,543.687866 
	C33.467209,541.895142 33.201706,540.439941 32.812447,538.793335 
	C32.499424,538.360107 32.278957,538.151367 32.027328,537.513916 
	C32.015926,533.036438 32.004486,529.020691 31.998852,524.535889 
	C32.006310,495.756927 31.942879,467.446686 32.021194,439.136871 
	C32.317791,331.919769 32.827976,224.702805 32.808300,117.485863 
	C32.805283,101.054192 37.555202,86.152565 45.048988,72.396996 
	C49.682922,63.890957 57.742348,57.047516 64.980827,50.217377 
	C73.324234,42.344646 84.160736,38.836861 94.926193,35.478107 
	C96.370377,35.027531 97.601906,33.895374 98.931915,33.078838 
	C99.129166,33.025906 99.326416,32.972973 100.098587,33.091980 
	C103.436821,32.870083 106.200127,32.476250 109.431793,32.070297 
	C269.277954,32.056732 428.655762,32.055290 588.377563,32.269176 
	C595.962158,32.764141 603.207092,32.961079 610.442200,33.344490 
	C619.356262,33.816875 628.272522,34.315521 637.168945,35.036686 
	C649.215820,36.013233 661.304565,36.776699 673.266296,38.423702 
	C688.788940,40.560997 704.221863,43.380798 719.640686,46.195831 
	C721.333679,46.504929 722.680176,48.711586 724.202515,50.082005 
	C724.217651,50.125862 724.134644,50.167286 723.791138,50.174068 
	C722.638672,51.130478 721.829773,52.080105 721.009155,53.018631 
	C720.997559,53.007526 721.021484,53.019817 720.730591,53.051598 
	C719.977661,53.416527 719.515747,53.749683 719.078979,54.078583 
	C719.104248,54.074329 719.096863,54.125011 718.730713,54.106979 
	C716.913696,55.400261 715.462891,56.711575 714.004822,58.011696 
	C713.997559,58.000507 714.019470,58.014091 713.659058,58.014702 
	C711.837891,59.340298 710.377197,60.665287 708.641357,62.171684 
	C697.320923,72.190956 685.594971,81.376846 675.395691,92.025055 
	C661.370605,106.667412 648.879211,122.670471 637.963074,139.888306 
	C618.151001,171.137299 604.413635,204.868179 595.625122,240.705307 
	C591.542053,257.355194 587.589783,274.037140 583.517151,290.689575 
	C579.487915,307.164337 575.341980,323.610535 571.318848,340.086731 
	C565.569641,363.631287 559.936279,387.204193 554.157288,410.741364 
	C549.634338,429.162872 544.992249,447.555267 540.353516,465.948120 
	C535.561035,484.951324 530.794067,503.961670 525.844421,522.924133 
	C523.576965,531.610901 520.869202,540.182129 518.413879,548.820679 
	C514.603027,562.228516 510.837311,575.649231 506.827209,589.312988 
	C506.460449,590.434326 506.318939,591.307251 506.195343,592.492493 
	C506.145813,593.215576 506.078339,593.626282 505.720032,594.116821 
	C505.328522,595.146423 505.227844,596.096313 505.121399,597.425293 
	C504.973969,598.547974 504.832306,599.291626 504.391663,600.187012 
	C503.778107,601.904053 503.463531,603.469238 503.127625,605.373901 
	C503.005890,606.155029 502.905457,606.596802 502.496338,607.163696 
	C500.827789,612.944763 499.467926,618.600708 498.108063,624.256653 
	C498.108063,624.256653 498.151031,624.614868 497.755920,624.912109 
	C496.601440,626.783569 495.670776,628.299866 495.115967,629.943176 
	C493.656158,634.266785 492.359802,638.645630 490.963989,642.938538 
	C490.929657,642.874634 490.772980,642.858398 490.772980,642.858398 
	C490.772980,642.858398 491.002197,642.998535 490.975464,643.386902 
	C488.885345,655.662964 481.353577,664.062073 473.058014,672.020935 
	C469.977081,674.976868 467.152100,678.199585 464.210388,681.300720 
	C464.210419,681.300720 464.190430,681.193115 463.808685,681.155701 
	C456.734009,682.658203 450.053711,684.256714 443.341644,685.707947 
	C440.778778,686.262146 438.014008,687.173157 435.564758,686.718262 
	C428.466980,685.399963 421.526123,683.246094 414.435852,681.873962 
	C410.704071,681.151794 406.789001,681.376709 402.956696,681.174011 
	C402.400574,681.102722 401.844482,681.031433 401.033386,680.447632 
	C400.169983,679.302856 399.561584,678.670471 398.640198,678.019409 
	C397.909607,677.980713 397.492035,677.960632 396.946381,677.644226 
	C395.529938,677.230225 394.241577,677.112549 392.634338,676.988892 
	C391.890991,676.971191 391.466522,676.959534 390.901672,676.622803 
	C381.486359,673.346497 372.227264,670.344238 362.930664,667.462952 
	C357.134125,665.666321 351.296265,663.996704 345.442505,662.396118 
	C344.023743,662.008240 342.468842,662.118225 340.585144,661.986938 
	C338.151672,661.634583 336.109650,661.294617 333.990234,660.708191 
	C333.264771,660.303955 332.616699,660.146118 331.609070,659.966003 
	C329.852509,659.612183 328.455505,659.280762 326.982635,658.704285 
	C326.260590,658.301331 325.614441,658.143433 324.598572,657.976624 
	C322.471008,657.320801 320.713135,656.673828 318.837097,655.689819 
	C314.470978,654.553345 310.223083,653.753784 305.602051,652.930542 
	C295.485382,649.948547 285.741852,646.990356 275.665863,644.023193 
	C274.890137,644.022827 274.446808,644.031372 273.802399,643.837524 
	C273.075043,643.447571 272.548798,643.259827 271.616516,643.026001 
	C267.657471,642.577637 264.104401,642.175293 260.551361,641.772949 
	C260.551361,641.772949 260.459717,641.812622 260.367493,641.452759 
	C259.516846,640.731873 258.758423,640.370789 257.759949,639.764771 
	C255.314453,638.450439 253.209534,637.002686 250.884109,636.384827 
	C244.574097,634.708130 238.125107,633.555176 231.813370,631.884216 
	C217.176544,628.009155 202.588150,623.951294 187.873474,619.869873 
	C187.475571,619.645508 187.220627,619.706482 186.727600,620.000061 
	C185.973892,620.308777 185.494583,620.572510 185.015289,620.836304 
	C184.528946,620.822266 184.042587,620.808289 183.223236,620.211670 
	C180.264099,618.747009 177.637955,617.864990 174.922577,616.694702 
	C174.221512,615.957458 173.609695,615.508484 172.649246,615.033203 
	C171.193954,614.670776 170.087280,614.334778 168.780716,613.806152 
	C168.065918,613.434570 167.550980,613.255676 166.634125,613.069580 
	C165.160355,613.064026 164.088516,613.065613 162.816010,612.906982 
	C162.071045,613.192932 161.526718,613.638977 160.982407,614.085083 
z"/>
<path fill="white" opacity="1.000000" stroke="none" 
	d="
M836.772461,922.861938 
	C840.241943,910.523132 843.757446,898.197021 847.171936,885.843018 
	C855.552063,855.523071 881.023560,837.261353 911.525513,841.182373 
	C923.802246,842.760559 935.765503,846.985596 947.786072,850.314148 
	C1042.422241,876.519836 1137.050049,902.755920 1231.652832,929.081909 
	C1263.841675,938.039368 1280.453003,970.384949 1269.498047,1001.795349 
	C1241.314575,1082.603638 1200.403931,1156.328125 1146.392700,1222.698608 
	C1075.333496,1310.017700 988.829285,1377.692749 886.821045,1425.376587 
	C813.956055,1459.437378 737.481323,1480.804810 657.461792,1489.157837 
	C639.915894,1490.989380 622.262146,1491.787476 603.812256,1492.959473 
	C596.241394,1493.012939 589.516296,1493.168579 582.791199,1493.324219 
	C582.199463,1493.398804 581.607666,1493.473267 580.701050,1493.254639 
	C582.192627,1491.269531 583.854919,1489.384277 585.826904,1487.914429 
	C620.401062,1462.143799 650.184875,1431.671631 675.413391,1396.731079 
	C701.657043,1360.384766 721.843689,1320.898438 734.826965,1278.010742 
	C750.452576,1226.394653 765.282227,1174.536499 780.292297,1122.735596 
	C793.682007,1076.526611 806.928284,1030.275879 820.075928,983.997498 
	C825.848755,963.677856 831.219299,943.243958 836.772461,922.861938 
z"/>
<path fill="white" opacity="1.000000" stroke="none" 
	d="
M836.541870,922.970642 
	C831.219299,943.243958 825.848755,963.677856 820.075928,983.997498 
	C806.928284,1030.275879 793.682007,1076.526611 780.292297,1122.735596 
	C765.282227,1174.536499 750.452576,1226.394653 734.826965,1278.010742 
	C721.843689,1320.898438 701.657043,1360.384766 675.413391,1396.731079 
	C650.184875,1431.671631 620.401062,1462.143799 585.826904,1487.914429 
	C583.854919,1489.384277 582.192627,1491.269531 580.253906,1493.236450 
	C567.801819,1493.619141 555.481995,1493.818481 543.162231,1493.820557 
	C401.675201,1493.844849 260.186920,1493.505737 118.701881,1494.037109 
	C73.981560,1494.204956 37.619911,1463.384888 31.529955,1421.119629 
	C30.703009,1415.380493 30.733021,1409.486694 30.731649,1403.664429 
	C30.692421,1237.179443 30.753149,1070.694458 30.616413,904.209473 
	C30.602972,887.842163 33.417732,872.678101 44.582951,860.081055 
	C60.933426,841.633728 81.491478,835.087341 105.095741,841.408142 
	C156.040802,855.050171 206.765213,869.515442 257.591156,883.603333 
	C305.861023,896.982666 354.154083,910.278381 402.420715,923.669250 
	C455.024994,938.263428 507.600494,952.961121 560.207947,967.543823 
	C595.003052,977.188965 629.618103,987.597656 664.698364,996.072632 
	C712.929749,1007.724792 757.119995,997.667847 796.741821,967.657593 
	C812.912964,955.409241 825.519592,940.067078 836.541870,922.970642 
M699.691345,1003.962585 
	C696.720276,1003.640808 693.752075,1003.073303 690.777710,1003.039062 
	C676.673523,1002.876404 663.030457,1000.095398 649.615356,996.001953 
	C640.087769,993.094666 630.692871,989.710938 621.078796,987.136902 
	C596.928955,980.671082 572.665283,974.631287 548.494263,968.242798 
	C537.129089,965.238892 525.875793,961.812500 514.565125,958.601135 
	C497.332886,953.708679 480.113068,948.770935 462.852203,943.981323 
	C452.957306,941.235718 442.962036,938.852234 433.063904,936.117554 
	C411.846802,930.255493 390.645081,924.336121 369.472809,918.314270 
	C355.574432,914.361267 341.766846,910.088318 327.862152,906.158386 
	C321.488556,904.356995 314.923431,903.235718 308.542664,901.456543 
	C294.510529,897.543762 280.558655,893.344055 266.539246,889.384644 
	C254.930542,886.106140 243.285812,882.951782 231.623154,879.870728 
	C229.452179,879.297180 227.000443,879.700317 224.887344,879.011414 
	C220.187378,877.479126 215.720688,875.188782 210.980453,873.830078 
	C191.805725,868.333984 172.120758,864.655884 153.367767,857.647156 
	C152.901184,857.472717 152.410477,857.360840 151.927719,857.232056 
	C137.175964,853.297729 122.386749,849.497437 107.684486,845.386169 
	C97.641304,842.577698 87.583809,840.936340 77.333519,843.739807 
	C73.542252,844.776672 69.975777,846.619568 66.279678,848.023499 
	C55.237423,852.217896 47.629337,860.219177 41.756741,870.126282 
	C40.410439,872.397522 39.050472,874.701660 38.066952,877.139954 
	C32.761307,890.293274 33.175854,904.325256 33.180466,917.989014 
	C33.236225,1083.109741 33.633492,1248.230591 34.029465,1413.351074 
	C34.065228,1428.262817 39.734047,1441.548584 47.535740,1453.926758 
	C50.251518,1458.235840 53.647549,1462.177002 57.115295,1465.933228 
	C60.301582,1469.384521 64.572914,1471.646851 68.149429,1474.764160 
	C74.204407,1480.041748 81.950668,1484.184937 89.676491,1486.529541 
	C98.755135,1489.284790 108.568169,1490.800293 118.066261,1490.816650 
	C265.049744,1491.071289 412.033783,1490.996216 559.017700,1490.980835 
	C560.751160,1490.980591 562.484619,1490.762817 564.939270,1490.598389 
	C562.224792,1486.245850 563.699219,1484.767578 567.565552,1483.833374 
	C569.481384,1483.370605 570.978943,1481.156494 572.653992,1479.721069 
	C577.972717,1475.162720 576.709656,1464.599365 586.725342,1464.279907 
	C587.089661,1464.268188 587.438904,1463.630127 587.786804,1463.275757 
	C597.282715,1453.601929 607.095459,1444.213013 616.154541,1434.146118 
	C621.691711,1427.993042 629.055237,1423.221558 631.970886,1414.845093 
	C632.311035,1413.867554 633.807617,1413.347900 634.373840,1412.384277 
	C636.993347,1407.926880 639.545593,1403.425781 641.960571,1398.854980 
	C642.703369,1397.449219 642.577087,1394.681030 643.456116,1394.393433 
	C650.295532,1392.156128 652.178894,1386.993896 654.625488,1380.710449 
	C657.103455,1374.346191 663.627991,1369.673340 667.585449,1363.730347 
	C670.421570,1359.471191 671.966736,1354.348633 674.052917,1349.595825 
	C675.236389,1346.899780 675.655029,1342.654663 677.628235,1341.751709 
	C682.986389,1339.299927 683.667664,1334.971680 684.932739,1330.243408 
	C685.974731,1326.348999 688.637817,1322.904541 689.824036,1319.028564 
	C691.514465,1313.505249 692.062134,1307.649780 698.198669,1304.567383 
	C699.386353,1303.970825 699.618774,1301.149292 699.973145,1299.293335 
	C700.496582,1296.552002 699.883545,1293.203613 701.256470,1291.088989 
	C705.094543,1285.177734 705.451721,1278.747559 706.210388,1272.099731 
	C706.807129,1266.870728 705.744141,1260.222900 713.355103,1257.967773 
	C714.656128,1257.582275 715.517151,1254.515503 715.910706,1252.552979 
	C716.459900,1249.813965 715.312744,1246.089844 716.760498,1244.293823 
	C721.632874,1238.249023 719.061462,1230.697144 721.758667,1224.275635 
	C723.190613,1220.866577 724.130249,1216.838989 723.841370,1213.205933 
	C723.267822,1205.993530 726.047119,1200.258057 729.926147,1194.701416 
	C730.587036,1193.754639 731.502258,1192.823975 731.732727,1191.762695 
	C734.574097,1178.681763 737.217163,1165.556641 740.180786,1152.504150 
	C740.588867,1150.707153 742.366577,1149.167358 743.667664,1147.642944 
	C744.813477,1146.300415 747.144470,1145.246216 747.284973,1143.891846 
	C747.965332,1137.334961 748.456970,1130.831787 751.922974,1124.946777 
	C752.435364,1124.076660 751.933594,1122.648071 752.038330,1121.490234 
	C752.187439,1119.842041 752.432739,1118.200317 752.690735,1116.564453 
	C753.792664,1109.574463 754.870544,1102.579956 756.057495,1095.604248 
	C756.387085,1093.666992 756.752258,1091.627563 757.642029,1089.916382 
	C759.532532,1086.280518 762.690002,1083.067627 763.687439,1079.252319 
	C765.723816,1071.463501 766.652344,1063.386719 768.098267,1055.439697 
	C768.332397,1054.153198 768.912598,1052.932861 769.277466,1051.666016 
	C770.209473,1048.430176 770.948242,1045.127441 772.079651,1041.964355 
	C772.848938,1039.813599 773.639771,1036.916748 775.319580,1036.000000 
	C779.008789,1033.986328 779.929993,1031.231445 780.091248,1027.447632 
	C780.222656,1024.366821 780.776428,1021.244141 781.608276,1018.270142 
	C782.440063,1015.296570 784.280762,1012.575989 784.915344,1009.582520 
	C786.212158,1003.464966 787.068298,997.249084 787.962097,991.052979 
	C788.411865,987.935425 788.547180,984.772522 788.979248,979.879761 
	C780.559448,983.563171 773.669617,986.455933 766.881226,989.569702 
	C745.842041,999.220276 723.631775,1003.397766 699.691345,1003.962585 
z"/>
<path fill="white" opacity="1.000000" stroke="none" 
	d="
M731.760376,46.904358 
	C745.517334,50.099197 759.396729,52.845749 773.010498,56.564888 
	C839.229736,74.655312 901.576721,101.784554 960.062317,137.718155 
	C1034.156982,183.241989 1098.261230,240.042862 1152.240723,308.261292 
	C1203.098145,372.534088 1242.088135,443.317017 1269.135010,520.685547 
	C1281.293701,555.465698 1291.274292,590.862122 1297.200317,627.233276 
	C1302.173218,657.754944 1279.205444,685.643433 1248.048584,687.117798 
	C1239.258423,687.533752 1230.057983,686.099548 1221.514771,683.783752 
	C1174.614136,671.069946 1127.877686,657.751953 1081.049561,644.768982 
	C1025.573364,629.388367 970.043884,614.199463 914.568665,598.815125 
	C837.752930,577.512756 760.871399,556.437927 684.209961,534.592590 
	C649.908447,524.818115 616.280457,523.945068 582.899170,537.298645 
	C548.729248,550.967712 523.389587,574.485962 506.227356,606.908081 
	C507.284393,602.478821 508.537445,598.234314 510.140137,593.900330 
	C510.961060,593.373840 511.490112,592.984375 511.895233,592.492798 
	C519.508118,583.255127 526.577759,573.493103 534.880859,564.926147 
	C541.110718,558.498352 548.922668,553.603821 556.352905,547.914429 
	C560.218323,545.642029 563.599915,543.139709 567.332031,541.381104 
	C583.600159,533.715271 600.146240,526.669800 618.395874,525.541382 
	C629.142151,524.876831 640.136841,523.576782 650.660095,525.080139 
	C665.354553,527.179321 679.758057,531.452454 694.203674,535.120117 
	C712.397034,539.739136 730.525085,544.619141 748.647888,549.510559 
	C765.293030,554.003052 781.893494,558.660950 798.514160,563.244080 
	C802.498718,564.342896 806.510803,565.350342 810.466064,566.545776 
	C819.511414,569.279480 828.467041,572.330261 837.573242,574.837585 
	C851.292908,578.615356 865.160950,581.856262 878.870850,585.667053 
	C891.478699,589.171326 903.912476,593.300110 916.511963,596.836609 
	C929.940247,600.605713 943.504700,603.887146 956.952271,607.590393 
	C975.207825,612.617676 993.401306,617.870361 1011.635315,622.976440 
	C1029.285645,627.918884 1046.952881,632.800964 1064.614258,637.704285 
	C1080.109741,642.006226 1095.598999,646.330994 1111.110474,650.574280 
	C1114.308472,651.449036 1117.635376,651.854370 1120.830444,652.737793 
	C1140.321045,658.127136 1159.801270,663.554626 1179.263672,669.044983 
	C1192.017334,672.642700 1204.658936,676.666809 1217.495361,679.931519 
	C1226.151733,682.133240 1235.086792,684.825928 1243.850098,684.668823 
	C1258.974609,684.397705 1272.419922,679.175781 1282.825928,666.913696 
	C1290.505859,657.864075 1294.635986,647.988037 1295.067017,636.337952 
	C1295.541260,623.521606 1292.036255,611.295593 1288.878296,599.133728 
	C1283.043457,576.662537 1276.731445,554.306396 1270.132568,532.046265 
	C1266.883179,521.084961 1262.732056,510.375488 1258.655640,499.679077 
	C1254.405029,488.525360 1250.137573,477.348907 1245.181885,466.500183 
	C1238.703735,452.318451 1231.594849,438.422638 1224.640747,424.461945 
	C1222.730591,420.627472 1220.341553,417.034454 1218.283203,413.270050 
	C1215.816406,408.758545 1213.653320,404.071686 1211.022949,399.660980 
	C1207.544678,393.828400 1203.699219,388.216064 1200.085815,382.462433 
	C1193.579712,372.102386 1187.289185,361.602600 1180.592285,351.368256 
	C1176.790161,345.557648 1172.412109,340.118225 1168.202026,334.581299 
	C1158.585815,321.934814 1149.132446,309.155304 1139.190308,296.769196 
	C1132.029175,287.847900 1124.273193,279.395935 1116.622070,270.878815 
	C1109.529419,262.983307 1102.492065,255.007355 1094.946533,247.556915 
	C1084.556274,237.297745 1073.893921,227.294815 1063.005737,217.565247 
	C1053.349854,208.936783 1043.498413,200.478165 1033.242676,192.581818 
	C1019.483215,181.987762 1005.416016,171.771484 991.173889,161.833038 
	C978.424805,152.936462 965.368103,144.465027 952.232910,136.144165 
	C945.541626,131.905380 938.399048,128.373886 931.425537,124.587051 
	C920.633850,118.726814 910.005310,112.521332 898.954834,107.193924 
	C884.925415,100.430389 870.674744,94.079468 856.275085,88.143669 
	C842.829468,82.601158 829.091919,77.758141 815.424377,72.767548 
	C810.631531,71.017471 805.672791,69.716904 800.776001,68.257408 
	C785.858215,63.811134 770.933655,59.387466 755.791016,54.771183 
	C754.703735,54.701553 753.837280,54.815742 752.608948,54.853500 
	C748.493225,53.523956 744.739319,52.270847 740.617920,50.932777 
	C736.543152,50.582218 732.835938,50.316624 729.094116,49.780342 
	C729.031616,49.329906 729.003662,49.150158 728.983582,48.982731 
	C728.991516,48.995056 728.979370,48.980232 729.261230,48.942520 
	C730.001282,48.598709 730.459534,48.292606 731.061707,47.882313 
	C731.390564,47.486866 731.575439,47.195614 731.760376,46.904358 
z"/>
<path fill="white" opacity="1.000000" stroke="none" 
	d="
M728.975647,48.970406 
	C729.003662,49.150158 729.031616,49.329906 728.885986,50.049435 
	C725.004028,53.375904 721.237671,56.088989 717.597229,58.961597 
	C698.639465,73.920746 680.195068,89.462524 665.566711,108.889862 
	C655.808899,121.848907 645.574036,134.591843 637.255920,148.453629 
	C628.056152,163.784714 619.672852,179.829391 613.019043,196.400482 
	C606.618164,212.341690 602.822571,229.335541 598.002258,245.901779 
	C595.871765,253.223557 593.879150,260.593658 592.107483,268.009613 
	C589.759644,277.837280 587.838196,287.767273 585.465698,297.588562 
	C581.736023,313.028259 577.720764,328.398712 573.940308,343.826385 
	C569.308044,362.729736 564.827698,381.670288 560.216492,400.578827 
	C556.432556,416.094818 552.535645,431.583160 548.721802,447.091888 
	C545.747437,459.187225 542.905823,471.315857 539.850159,483.390442 
	C537.612549,492.231964 535.145020,501.015717 532.741211,509.814636 
	C529.331055,522.297180 525.862976,534.763977 522.460266,547.248596 
	C518.215332,562.823059 514.011841,578.408875 509.790497,593.989807 
	C508.537445,598.234314 507.284393,602.478821 505.992096,607.109741 
	C505.042603,609.514893 504.132355,611.533752 502.827026,613.489136 
	C502.556305,611.296631 502.680634,609.167542 502.804993,607.038513 
	C502.905457,606.596802 503.005890,606.155029 503.343018,605.122681 
	C503.950043,603.033142 504.320343,601.534180 504.690643,600.035217 
	C504.832306,599.291626 504.973969,598.547974 505.328796,597.176819 
	C505.698242,595.711853 505.854553,594.874390 506.010864,594.036987 
	C506.078339,593.626282 506.145813,593.215576 506.405640,592.229126 
	C506.749512,590.790344 506.901001,589.927429 507.052490,589.064453 
	C510.837311,575.649231 514.603027,562.228516 518.413879,548.820679 
	C520.869202,540.182129 523.576965,531.610901 525.844421,522.924133 
	C530.794067,503.961670 535.561035,484.951324 540.353516,465.948120 
	C544.992249,447.555267 549.634338,429.162872 554.157288,410.741364 
	C559.936279,387.204193 565.569641,363.631287 571.318848,340.086731 
	C575.341980,323.610535 579.487915,307.164337 583.517151,290.689575 
	C587.589783,274.037140 591.542053,257.355194 595.625122,240.705307 
	C604.413635,204.868179 618.151001,171.137299 637.963074,139.888306 
	C648.879211,122.670471 661.370605,106.667412 675.395691,92.025055 
	C685.594971,81.376846 697.320923,72.190956 708.985352,62.147297 
	C711.076111,60.632374 712.547791,59.323242 714.019470,58.014099 
	C714.019470,58.014091 713.997559,58.000507 714.346008,57.971245 
	C716.161926,56.669651 717.629395,55.397324 719.096863,54.125004 
	C719.096863,54.125011 719.104248,54.074329 719.376587,54.068066 
	C720.106445,53.714478 720.563965,53.367157 721.021484,53.019825 
	C721.021484,53.019817 720.997559,53.007526 721.336792,52.969513 
	C722.495605,52.010098 723.315125,51.088699 724.134644,50.167290 
	C724.134644,50.167286 724.217651,50.125862 724.484009,50.079216 
	C725.431458,49.702587 726.112549,49.372601 727.158875,49.043667 
	C728.007935,49.019951 728.491821,48.995178 728.975647,48.970406 
z"/>
<path fill="white" opacity="1.000000" stroke="none" 
	d="
M98.578110,33.007370 
	C97.601906,33.895374 96.370377,35.027531 94.926193,35.478107 
	C84.160736,38.836861 73.324234,42.344646 64.980827,50.217377 
	C57.742348,57.047516 49.682922,63.890957 45.048988,72.396996 
	C37.555202,86.152565 32.805283,101.054192 32.808300,117.485863 
	C32.827976,224.702805 32.317791,331.919769 32.021194,439.136871 
	C31.942879,467.446686 32.006310,495.756927 31.779438,524.535034 
	C31.554224,525.003174 31.115238,525.003357 31.115238,525.003357 
	C31.050686,522.675415 30.929869,520.347412 30.929632,518.019470 
	C30.915796,381.896759 30.642416,245.773071 31.149584,109.652283 
	C31.243549,84.432167 43.516888,63.744637 63.494991,48.522999 
	C71.292709,42.581791 80.810143,38.834942 89.731865,34.472206 
	C92.218491,33.256241 95.375076,33.410332 98.578110,33.007370 
z"/>
<path fill="white" opacity="1.000000" stroke="none" 
	d="
M588.033569,32.053852 
	C428.655762,32.055290 269.277954,32.056732 109.443420,31.796658 
	C108.999924,31.353561 109.013161,31.171982 109.026405,30.990400 
	C111.680954,30.848251 114.335480,30.582018 116.990044,30.581707 
	C272.175873,30.563498 427.361725,30.567034 582.547546,30.572624 
	C584.045593,30.572678 585.543640,30.628242 587.517395,31.057327 
	C588.006531,31.655794 588.020020,31.854822 588.033569,32.053852 
z"/>
<path fill="white" opacity="1.000000" stroke="none" 
	d="
M588.377563,32.269176 
	C588.020020,31.854822 588.006531,31.655794 587.970703,31.158354 
	C601.748047,31.288759 615.570374,31.355949 629.342957,32.218716 
	C661.957092,34.261791 694.238098,38.961967 726.282837,45.315765 
	C726.931335,45.444344 727.556946,45.688290 728.341919,46.252174 
	C727.924927,47.431484 727.359314,48.237045 726.793640,49.042610 
	C726.112549,49.372601 725.431458,49.702587 724.468872,50.035362 
	C722.680176,48.711586 721.333679,46.504929 719.640686,46.195831 
	C704.221863,43.380798 688.788940,40.560997 673.266296,38.423702 
	C661.304565,36.776699 649.215820,36.013233 637.168945,35.036686 
	C628.272522,34.315521 619.356262,33.816875 610.442200,33.344490 
	C603.207092,32.961079 595.962158,32.764141 588.377563,32.269176 
z"/>
<path fill="white" opacity="1.000000" stroke="none" 
	d="
M187.980133,619.967529 
	C202.588150,623.951294 217.176544,628.009155 231.813370,631.884216 
	C238.125107,633.555176 244.574097,634.708130 250.884109,636.384827 
	C253.209534,637.002686 255.314453,638.450439 257.765625,640.019775 
	C258.016754,640.689880 258.022247,640.859924 258.027740,641.030029 
	C251.826065,639.400757 245.606659,637.835754 239.426102,636.129822 
	C221.497482,631.181458 203.584412,626.176758 185.340271,621.015198 
	C185.494583,620.572510 185.973892,620.308777 186.971954,620.008728 
	C187.490723,619.972473 187.980133,619.967529 187.980133,619.967529 
z"/>
<path fill="white" opacity="1.000000" stroke="none" 
	d="
M52.974449,577.001526 
	C59.509758,582.484070 66.401604,586.813049 75.218498,588.277649 
	C82.145195,589.428284 88.737297,592.529724 95.523857,594.615417 
	C98.688507,595.587952 101.961693,596.207275 105.804581,597.194946 
	C106.965424,597.569275 107.507355,597.735352 108.049286,597.901367 
	C113.373260,599.344604 118.715706,600.724670 124.008255,602.275208 
	C125.340691,602.665527 126.513252,603.601501 127.879692,604.624817 
	C107.888062,599.349243 87.574257,594.346069 67.770004,587.801086 
	C60.536167,585.410461 54.512985,579.356689 47.902946,574.564819 
	C47.868404,574.155579 48.061016,573.947388 48.365501,574.016174 
	C49.446167,574.389282 50.222351,574.693604 50.998543,574.997925 
	C51.271626,575.168762 51.513523,575.376038 52.002754,576.001465 
	C52.482761,576.622375 52.713821,576.828491 52.974449,577.001526 
z"/>
<path fill="white" opacity="1.000000" stroke="none" 
	d="
M490.998352,643.002441 
	C492.359802,638.645630 493.656158,634.266785 495.115967,629.943176 
	C495.670776,628.299866 496.601440,626.783569 497.704102,625.084900 
	C493.839813,646.338318 488.578552,667.123291 467.702087,679.178955 
	C466.715912,679.748413 465.840027,680.508911 464.561584,681.240601 
	C467.152100,678.199585 469.977081,674.976868 473.058014,672.020935 
	C481.353577,664.062073 488.885345,655.662964 490.974365,643.387634 
	C491.000000,643.000000 490.998352,643.002441 490.998352,643.002441 
z"/>
<path fill="white" opacity="1.000000" stroke="none" 
	d="
M403.231903,681.395447 
	C406.789001,681.376709 410.704071,681.151794 414.435852,681.873962 
	C421.526123,683.246094 428.466980,685.399963 435.564758,686.718262 
	C438.014008,687.173157 440.778778,686.262146 443.341644,685.707947 
	C450.053711,684.256714 456.734009,682.658203 463.850311,681.191223 
	C450.146698,689.316467 435.261292,690.501831 419.769104,686.174744 
	C414.347076,684.660278 408.927704,683.136414 403.231903,681.395447 
z"/>
<path fill="white" opacity="1.000000" stroke="none" 
	d="
M318.955261,656.026855 
	C320.713135,656.673828 322.471008,657.320801 324.815491,658.177734 
	C325.954224,658.574890 326.506378,658.762085 327.058533,658.949280 
	C328.455505,659.280762 329.852509,659.612183 331.827362,660.166748 
	C332.959381,660.578064 333.513519,660.766357 334.067627,660.954590 
	C336.109650,661.294617 338.151672,661.634583 340.772583,662.203796 
	C341.900604,663.185791 342.449707,663.938477 342.998810,664.691223 
	C320.870575,658.587891 298.742340,652.484619 276.305725,645.864258 
	C275.997650,644.908813 275.997986,644.470459 275.998291,644.032104 
	C285.741852,646.990356 295.485382,649.948547 305.990387,652.969971 
	C310.819641,654.031067 314.887421,655.028992 318.955261,656.026855 
z"/>
<path fill="white" opacity="1.000000" stroke="none" 
	d="
M343.344360,664.862549 
	C342.449707,663.938477 341.900604,663.185791 341.164001,662.216187 
	C342.468842,662.118225 344.023743,662.008240 345.442505,662.396118 
	C351.296265,663.996704 357.134125,665.666321 362.930664,667.462952 
	C372.227264,670.344238 381.486359,673.346497 390.891418,676.874146 
	C391.018066,677.617798 391.014648,677.785034 391.011200,677.952332 
	C375.237427,673.646179 359.463654,669.340088 343.344360,664.862549 
z"/>
<path fill="white" opacity="1.000000" stroke="none" 
	d="
M31.033915,525.465088 
	C31.115238,525.003357 31.554224,525.003174 31.773636,525.004028 
	C32.004486,529.020691 32.015926,533.036438 32.151474,537.706055 
	C32.463169,538.602661 32.683376,538.810974 32.936203,538.984802 
	C33.201706,540.439941 33.467209,541.895142 34.009457,543.871277 
	C34.472557,544.623108 34.689861,544.819763 34.938122,544.982239 
	C35.281078,546.410339 35.624031,547.838440 35.799835,549.881958 
	C36.075016,551.992737 36.517349,553.488037 36.959686,554.983337 
	C38.169979,557.164368 39.380272,559.345398 40.938850,561.963745 
	C41.478409,562.630310 41.699512,562.825989 41.950436,562.987915 
	C41.981976,563.424011 42.013515,563.860107 42.201584,564.917358 
	C42.906635,566.690674 43.455166,567.842896 43.840385,569.143127 
	C43.677082,569.291138 43.354328,569.591248 43.354328,569.591248 
	C34.474583,558.396423 30.492462,545.609192 30.913221,531.383606 
	C30.966986,529.565918 30.941412,527.745850 31.033915,525.465088 
z"/>
<path fill="white" opacity="1.000000" stroke="none" 
	d="
M151.006607,609.940063 
	C152.075409,609.969849 153.144196,609.999634 154.752258,610.217163 
	C155.495529,610.629395 155.731369,610.813049 155.999069,610.955750 
	C156.954025,611.654968 157.908997,612.354248 158.944077,613.355103 
	C149.624817,611.097534 140.225449,608.538391 130.522430,605.753540 
	C133.546066,605.999268 136.873337,606.470642 140.767181,607.133545 
	C141.883865,607.232971 142.433990,607.140869 142.984116,607.048706 
	C143.438004,607.056702 143.891907,607.064758 144.817352,607.251587 
	C145.482117,607.646729 145.700516,607.833496 145.944107,607.990723 
	C146.744812,608.322388 147.545517,608.654053 148.886230,609.200562 
	C149.953018,609.590271 150.479813,609.765137 151.006607,609.940063 
z"/>
<path fill="white" opacity="1.000000" stroke="none" 
	d="
M175.011810,616.982910 
	C177.637955,617.864990 180.264099,618.747009 182.960571,619.955566 
	C176.579224,618.557190 170.127548,616.832336 163.338196,614.655945 
	C163.005905,613.825378 163.011292,613.446289 163.016663,613.067200 
	C164.088516,613.065613 165.160355,613.064026 166.837799,613.252197 
	C167.955811,613.627502 168.468216,613.813110 168.980591,613.998779 
	C170.087280,614.334778 171.193954,614.670776 172.736786,615.318909 
	C173.785904,616.081665 174.398865,616.532288 175.011810,616.982910 
z"/>
<path fill="white" opacity="1.000000" stroke="none" 
	d="
M502.496307,607.163696 
	C502.680634,609.167542 502.556305,611.296631 502.580261,613.751099 
	C501.400818,617.370361 500.073090,620.664246 498.426697,624.107361 
	C499.467926,618.600708 500.827789,612.944763 502.496307,607.163696 
z"/>
<path fill="white" opacity="1.000000" stroke="none" 
	d="
M583.145020,1493.476807 
	C589.516296,1493.168579 596.241394,1493.012939 603.260376,1492.942383 
	C596.869141,1493.228149 590.184021,1493.428711 583.145020,1493.476807 
z"/>
<path fill="white" opacity="1.000000" stroke="none" 
	d="
M260.845490,641.953186 
	C264.104401,642.175293 267.657471,642.577637 271.742737,643.284058 
	C272.517792,644.112732 272.760651,644.637268 273.003540,645.161865 
	C269.048889,644.152405 265.094269,643.142883 260.845490,641.953186 
z"/>
<path fill="white" opacity="1.000000" stroke="none" 
	d="
M108.708649,30.890108 
	C109.013161,31.171982 108.999924,31.353561 108.975067,31.808779 
	C106.200127,32.476250 103.436821,32.870083 100.401443,33.138020 
	C102.883224,32.271358 105.637054,31.530586 108.708649,30.890108 
z"/>
<path fill="white" opacity="1.000000" stroke="none" 
	d="
M391.325500,678.135132 
	C391.014648,677.785034 391.018066,677.617798 391.031769,677.199219 
	C391.466522,676.959534 391.890991,676.971191 392.923370,677.204346 
	C394.712341,677.597412 395.893402,677.768982 397.074463,677.940552 
	C397.492035,677.960632 397.909607,677.980713 398.648956,678.369507 
	C398.977295,679.206116 398.983856,679.674011 398.990417,680.141846 
	C396.540222,679.533875 394.089996,678.925903 391.325500,678.135132 
z"/>
<path fill="white" opacity="1.000000" stroke="none" 
	d="
M44.996071,568.981934 
	C46.157375,569.854126 47.318676,570.726257 48.524731,572.011047 
	C48.399994,572.931580 48.230499,573.439453 48.061012,573.947388 
	C48.061016,573.947388 47.868404,574.155579 47.772530,574.260071 
	C46.335480,572.966492 44.994305,571.568420 43.503731,569.880737 
	C43.354328,569.591248 43.677082,569.291138 44.088501,569.142761 
	C44.499916,568.994385 44.996071,568.981934 44.996071,568.981934 
z"/>
<path fill="white" opacity="1.000000" stroke="none" 
	d="
M727.158875,49.043663 
	C727.359314,48.237045 727.924927,47.431484 728.693542,46.408569 
	C729.636719,46.304775 730.377014,46.418339 731.438843,46.718132 
	C731.575439,47.195614 731.390564,47.486866 730.783264,47.918938 
	C729.900391,48.366589 729.439880,48.673416 728.979370,48.980240 
	C728.979370,48.980232 728.991516,48.995056 728.983582,48.982727 
	C728.491821,48.995178 728.007935,49.019951 727.158875,49.043663 
z"/>
<path fill="white" opacity="1.000000" stroke="none" 
	d="
M162.816010,612.906982 
	C163.011292,613.446289 163.005905,613.825378 163.000793,614.489502 
	C162.459564,614.679260 161.918060,614.583984 161.179474,614.286865 
	C161.526718,613.638977 162.071045,613.192932 162.816010,612.906982 
z"/>
<path fill="white" opacity="1.000000" stroke="none" 
	d="
M399.245850,680.356445 
	C398.983856,679.674011 398.977295,679.206116 398.961975,678.388184 
	C399.561584,678.670471 400.169983,679.302856 400.796753,680.291382 
	C400.377167,680.622009 399.939209,680.596436 399.245850,680.356445 
z"/>
<path fill="white" opacity="1.000000" stroke="none" 
	d="
M275.665863,644.023193 
	C275.997986,644.470459 275.997650,644.908813 275.994202,645.676819 
	C275.423798,645.967102 274.856476,645.927734 274.099365,645.346191 
	C273.940887,644.549438 273.972198,644.294678 274.003510,644.039917 
	C274.446808,644.031372 274.890137,644.022827 275.665863,644.023193 
z"/>
<path fill="white" opacity="1.000000" stroke="none" 
	d="
M273.802399,643.837585 
	C273.972198,644.294678 273.940887,644.549438 273.860901,645.186035 
	C273.812256,645.567932 273.332489,645.515503 273.168030,645.338684 
	C272.760651,644.637268 272.517792,644.112732 272.148743,643.330139 
	C272.548798,643.259827 273.075043,643.447571 273.802399,643.837585 
z"/>
<path fill="white" opacity="1.000000" stroke="none" 
	d="
M258.291504,641.203674 
	C258.022247,640.859924 258.016754,640.689880 258.005646,640.264771 
	C258.758423,640.370789 259.516846,640.731873 260.330170,641.419617 
	C259.775146,641.623291 259.165222,641.500305 258.291504,641.203674 
z"/>
<path fill="white" opacity="1.000000" stroke="none" 
	d="
M318.837067,655.689819 
	C314.887421,655.028992 310.819641,654.031067 306.363495,652.993713 
	C310.223083,653.753784 314.470978,654.553345 318.837067,655.689819 
z"/>
<path fill="white" opacity="1.000000" stroke="none" 
	d="
M718.730713,54.106972 
	C717.629395,55.397324 716.161926,56.669651 714.353271,57.982433 
	C715.462891,56.711575 716.913696,55.400261 718.730713,54.106972 
z"/>
<path fill="white" opacity="1.000000" stroke="none" 
	d="
M713.659058,58.014709 
	C712.547791,59.323242 711.076111,60.632374 709.260498,61.965889 
	C710.377197,60.665287 711.837891,59.340298 713.659058,58.014709 
z"/>
<path fill="white" opacity="1.000000" stroke="none" 
	d="
M396.946381,677.644165 
	C395.893402,677.768982 394.712341,677.597412 393.242249,677.210327 
	C394.241577,677.112549 395.529938,677.230225 396.946381,677.644165 
z"/>
<path fill="white" opacity="1.000000" stroke="none" 
	d="
M45.089233,568.698242 
	C44.996071,568.981934 44.499916,568.994385 44.251804,568.994751 
	C43.455166,567.842896 42.906635,566.690674 42.223785,565.244507 
	C43.120434,566.105164 44.151413,567.259827 45.089233,568.698242 
z"/>
<path fill="white" opacity="1.000000" stroke="none" 
	d="
M36.966545,554.605835 
	C36.517349,553.488037 36.075016,551.992737 35.799927,550.255432 
	C36.302586,551.418396 36.637997,552.823364 36.966545,554.605835 
z"/>
<path fill="white" opacity="1.000000" stroke="none" 
	d="
M723.791138,50.174072 
	C723.315125,51.088699 722.495605,52.010098 721.348450,52.980614 
	C721.829773,52.080105 722.638672,51.130478 723.791138,50.174072 
z"/>
<path fill="white" opacity="1.000000" stroke="none" 
	d="
M504.391663,600.187012 
	C504.320343,601.534180 503.950043,603.033142 503.364319,604.783325 
	C503.463531,603.469238 503.778107,601.904053 504.391663,600.187012 
z"/>
<path fill="white" opacity="1.000000" stroke="none" 
	d="
M505.720032,594.116821 
	C505.854553,594.874390 505.698242,595.711853 505.334534,596.797729 
	C505.227844,596.096313 505.328522,595.146423 505.720032,594.116821 
z"/>
<path fill="white" opacity="1.000000" stroke="none" 
	d="
M48.365494,574.016174 
	C48.230499,573.439453 48.399994,572.931580 48.751202,572.223633 
	C49.582161,572.807495 50.231411,573.591370 50.939598,574.686584 
	C50.222351,574.693604 49.446167,574.389282 48.365494,574.016174 
z"/>
<path fill="white" opacity="1.000000" stroke="none" 
	d="
M142.818420,606.877380 
	C142.433990,607.140869 141.883865,607.232971 141.162186,607.163940 
	C141.544662,606.903931 142.098694,606.804993 142.818420,606.877380 
z"/>
<path fill="white" opacity="1.000000" stroke="none" 
	d="
M333.990234,660.708130 
	C333.513519,660.766357 332.959381,660.578064 332.186951,660.189087 
	C332.616699,660.146118 333.264771,660.303955 333.990234,660.708130 
z"/>
<path fill="white" opacity="1.000000" stroke="none" 
	d="
M326.982635,658.704285 
	C326.506378,658.762085 325.954224,658.574890 325.185181,658.186584 
	C325.614441,658.143433 326.260590,658.301331 326.982635,658.704285 
z"/>
<path fill="white" opacity="1.000000" stroke="none" 
	d="
M107.973534,597.662720 
	C107.507355,597.735352 106.965424,597.569275 106.211227,597.208984 
	C106.631897,597.151184 107.264839,597.287598 107.973534,597.662720 
z"/>
<path fill="white" opacity="1.000000" stroke="none" 
	d="
M174.922577,616.694702 
	C174.398865,616.532288 173.785904,616.081665 173.085403,615.345337 
	C173.609695,615.508484 174.221512,615.957458 174.922577,616.694702 
z"/>
<path fill="white" opacity="1.000000" stroke="none" 
	d="
M150.953339,609.719421 
	C150.479813,609.765137 149.953018,609.590271 149.218933,609.225586 
	C149.641113,609.190125 150.270584,609.344421 150.953339,609.719421 
z"/>
<path fill="white" opacity="1.000000" stroke="none" 
	d="
M506.827209,589.312988 
	C506.901001,589.927429 506.749512,590.790344 506.387726,591.916748 
	C506.318939,591.307251 506.460449,590.434326 506.827209,589.312988 
z"/>
<path fill="white" opacity="1.000000" stroke="none" 
	d="
M720.730591,53.051605 
	C720.563965,53.367157 720.106445,53.714478 719.351318,54.072319 
	C719.515747,53.749683 719.977661,53.416527 720.730591,53.051605 
z"/>
<path fill="white" opacity="1.000000" stroke="none" 
	d="
M168.780731,613.806152 
	C168.468216,613.813110 167.955811,613.627502 167.239731,613.259338 
	C167.550980,613.255676 168.065918,613.434570 168.780731,613.806152 
z"/>
<path fill="white" opacity="1.000000" stroke="none" 
	d="
M145.820221,607.812378 
	C145.700516,607.833496 145.482117,607.646729 145.157715,607.260559 
	C145.284439,607.229004 145.507721,607.410156 145.820221,607.812378 
z"/>
<path fill="white" opacity="1.000000" stroke="none" 
	d="
M155.857941,610.781006 
	C155.731369,610.813049 155.495529,610.629395 155.153076,610.228394 
	C155.277359,610.200317 155.511429,610.385132 155.857941,610.781006 
z"/>
<path fill="white" opacity="1.000000" stroke="none" 
	d="
M52.842411,576.809204 
	C52.713821,576.828491 52.482761,576.622375 52.145718,576.193726 
	C52.276058,576.171326 52.509460,576.375488 52.842411,576.809204 
z"/>
<path fill="white" opacity="1.000000" stroke="none" 
	d="
M32.812447,538.793335 
	C32.683376,538.810974 32.463169,538.602661 32.151436,538.167664 
	C32.278957,538.151367 32.499424,538.360107 32.812447,538.793335 
z"/>
<path fill="white" opacity="1.000000" stroke="none" 
	d="
M491.001099,642.999268 
	C491.002197,642.998535 490.772980,642.858398 490.772980,642.858398 
	C490.772980,642.858398 490.929657,642.874634 490.963989,642.938538 
	C490.998352,643.002441 491.000000,643.000000 491.001099,642.999268 
z"/>
<path fill="white" opacity="1.000000" stroke="none" 
	d="
M34.815735,544.798950 
	C34.689861,544.819763 34.472557,544.623108 34.164513,544.208862 
	C34.290764,544.187927 34.507607,544.384644 34.815735,544.798950 
z"/>
<path fill="white" opacity="1.000000" stroke="none" 
	d="
M41.824471,562.804932 
	C41.699512,562.825989 41.478409,562.630310 41.160912,562.218994 
	C41.287216,562.196594 41.508484,562.391541 41.824471,562.804932 
z"/>
<path fill="white" opacity="1.000000" stroke="none" 
	d="
M187.873474,619.869873 
	C187.980133,619.967529 187.490723,619.972473 187.246368,619.963806 
	C187.220627,619.706482 187.475571,619.645508 187.873474,619.869873 
z"/>
<path fill="white" opacity="1.000000" stroke="none" 
	d="
M700.160156,1003.966797 
	C723.631775,1003.397766 745.842041,999.220276 766.881226,989.569702 
	C773.669617,986.455933 780.559448,983.563171 788.979248,979.879761 
	C788.547180,984.772522 788.411865,987.935425 787.962097,991.052979 
	C787.068298,997.249084 786.212158,1003.464966 784.915344,1009.582520 
	C784.280762,1012.575989 782.440063,1015.296570 781.608276,1018.270142 
	C780.776428,1021.244141 780.222656,1024.366821 780.091248,1027.447632 
	C779.929993,1031.231445 779.008789,1033.986328 775.319580,1036.000000 
	C773.639771,1036.916748 772.848938,1039.813599 772.079651,1041.964355 
	C770.948242,1045.127441 770.209473,1048.430176 769.277466,1051.666016 
	C768.912598,1052.932861 768.332397,1054.153198 768.098267,1055.439697 
	C766.652344,1063.386719 765.723816,1071.463501 763.687439,1079.252319 
	C762.690002,1083.067627 759.532532,1086.280518 757.642029,1089.916382 
	C756.752258,1091.627563 756.387085,1093.666992 756.057495,1095.604248 
	C754.870544,1102.579956 753.792664,1109.574463 752.690735,1116.564453 
	C752.432739,1118.200317 752.187439,1119.842041 752.038330,1121.490234 
	C751.933594,1122.648071 752.435364,1124.076660 751.922974,1124.946777 
	C748.456970,1130.831787 747.965332,1137.334961 747.284973,1143.891846 
	C747.144470,1145.246216 744.813477,1146.300415 743.667664,1147.642944 
	C742.366577,1149.167358 740.588867,1150.707153 740.180786,1152.504150 
	C737.217163,1165.556641 734.574097,1178.681763 731.732727,1191.762695 
	C731.502258,1192.823975 730.587036,1193.754639 729.926147,1194.701416 
	C726.047119,1200.258057 723.267822,1205.993530 723.841370,1213.205933 
	C724.130249,1216.838989 723.190613,1220.866577 721.758667,1224.275635 
	C719.061462,1230.697144 721.632874,1238.249023 716.760498,1244.293823 
	C715.312744,1246.089844 716.459900,1249.813965 715.910706,1252.552979 
	C715.517151,1254.515503 714.656128,1257.582275 713.355103,1257.967773 
	C705.744141,1260.222900 706.807129,1266.870728 706.210388,1272.099731 
	C705.451721,1278.747559 705.094543,1285.177734 701.256470,1291.088989 
	C699.883545,1293.203613 700.496582,1296.552002 699.973145,1299.293335 
	C699.618774,1301.149292 699.386353,1303.970825 698.198669,1304.567383 
	C692.062134,1307.649780 691.514465,1313.505249 689.824036,1319.028564 
	C688.637817,1322.904541 685.974731,1326.348999 684.932739,1330.243408 
	C683.667664,1334.971680 682.986389,1339.299927 677.628235,1341.751709 
	C675.655029,1342.654663 675.236389,1346.899780 674.052917,1349.595825 
	C671.966736,1354.348633 670.421570,1359.471191 667.585449,1363.730347 
	C663.627991,1369.673340 657.103455,1374.346191 654.625488,1380.710449 
	C652.178894,1386.993896 650.295532,1392.156128 643.456116,1394.393433 
	C642.577087,1394.681030 642.703369,1397.449219 641.960571,1398.854980 
	C639.545593,1403.425781 636.993347,1407.926880 634.373840,1412.384277 
	C633.807617,1413.347900 632.311035,1413.867554 631.970886,1414.845093 
	C629.055237,1423.221558 621.691711,1427.993042 616.154541,1434.146118 
	C607.095459,1444.213013 597.282715,1453.601929 587.786804,1463.275757 
	C587.438904,1463.630127 587.089661,1464.268188 586.725342,1464.279907 
	C576.709656,1464.599365 577.972717,1475.162720 572.653992,1479.721069 
	C570.978943,1481.156494 569.481384,1483.370605 567.565552,1483.833374 
	C563.699219,1484.767578 562.224792,1486.245850 564.939270,1490.598389 
	C562.484619,1490.762817 560.751160,1490.980591 559.017700,1490.980835 
	C412.033783,1490.996216 265.049744,1491.071289 118.066261,1490.816650 
	C108.568169,1490.800293 98.755135,1489.284790 89.676491,1486.529541 
	C81.950668,1484.184937 74.204407,1480.041748 68.149429,1474.764160 
	C64.572914,1471.646851 60.301582,1469.384521 57.115295,1465.933228 
	C53.647549,1462.177002 50.251518,1458.235840 47.535740,1453.926758 
	C39.734047,1441.548584 34.065228,1428.262817 34.029465,1413.351074 
	C33.633492,1248.230591 33.236225,1083.109741 33.180466,917.989014 
	C33.175854,904.325256 32.761307,890.293274 38.066952,877.139954 
	C39.050472,874.701660 40.410439,872.397522 41.756741,870.126282 
	C47.629337,860.219177 55.237423,852.217896 66.279678,848.023499 
	C69.975777,846.619568 73.542252,844.776672 77.333519,843.739807 
	C87.583809,840.936340 97.641304,842.577698 107.684486,845.386169 
	C122.386749,849.497437 137.175964,853.297729 151.927719,857.232056 
	C152.410477,857.360840 152.901184,857.472717 153.367767,857.647156 
	C172.120758,864.655884 191.805725,868.333984 210.980453,873.830078 
	C215.720688,875.188782 220.187378,877.479126 224.887344,879.011414 
	C227.000443,879.700317 229.452179,879.297180 231.623154,879.870728 
	C243.285812,882.951782 254.930542,886.106140 266.539246,889.384644 
	C280.558655,893.344055 294.510529,897.543762 308.542664,901.456543 
	C314.923431,903.235718 321.488556,904.356995 327.862152,906.158386 
	C341.766846,910.088318 355.574432,914.361267 369.472809,918.314270 
	C390.645081,924.336121 411.846802,930.255493 433.063904,936.117554 
	C442.962036,938.852234 452.957306,941.235718 462.852203,943.981323 
	C480.113068,948.770935 497.332886,953.708679 514.565125,958.601135 
	C525.875793,961.812500 537.129089,965.238892 548.494263,968.242798 
	C572.665283,974.631287 596.928955,980.671082 621.078796,987.136902 
	C630.692871,989.710938 640.087769,993.094666 649.615356,996.001953 
	C663.030457,1000.095398 676.673523,1002.876404 690.777710,1003.039062 
	C693.752075,1003.073303 696.720276,1003.640808 700.160156,1003.966797 
z"/>
<path fill="white" opacity="1.000000" stroke="none" 
	d="
M740.985352,51.017746 
	C744.739319,52.270847 748.493225,53.523956 752.989014,54.875626 
	C754.491150,54.967789 755.251465,54.961395 756.011780,54.955002 
	C770.933655,59.387466 785.858215,63.811134 800.776001,68.257408 
	C805.672791,69.716904 810.631531,71.017471 815.424377,72.767548 
	C829.091919,77.758141 842.829468,82.601158 856.275085,88.143669 
	C870.674744,94.079468 884.925415,100.430389 898.954834,107.193924 
	C910.005310,112.521332 920.633850,118.726814 931.425537,124.587051 
	C938.399048,128.373886 945.541626,131.905380 952.232910,136.144165 
	C965.368103,144.465027 978.424805,152.936462 991.173889,161.833038 
	C1005.416016,171.771484 1019.483215,181.987762 1033.242676,192.581818 
	C1043.498413,200.478165 1053.349854,208.936783 1063.005737,217.565247 
	C1073.893921,227.294815 1084.556274,237.297745 1094.946533,247.556915 
	C1102.492065,255.007355 1109.529419,262.983307 1116.622070,270.878815 
	C1124.273193,279.395935 1132.029175,287.847900 1139.190308,296.769196 
	C1149.132446,309.155304 1158.585815,321.934814 1168.202026,334.581299 
	C1172.412109,340.118225 1176.790161,345.557648 1180.592285,351.368256 
	C1187.289185,361.602600 1193.579712,372.102386 1200.085815,382.462433 
	C1203.699219,388.216064 1207.544678,393.828400 1211.022949,399.660980 
	C1213.653320,404.071686 1215.816406,408.758545 1218.283203,413.270050 
	C1220.341553,417.034454 1222.730591,420.627472 1224.640747,424.461945 
	C1231.594849,438.422638 1238.703735,452.318451 1245.181885,466.500183 
	C1250.137573,477.348907 1254.405029,488.525360 1258.655640,499.679077 
	C1262.732056,510.375488 1266.883179,521.084961 1270.132568,532.046265 
	C1276.731445,554.306396 1283.043457,576.662537 1288.878296,599.133728 
	C1292.036255,611.295593 1295.541260,623.521606 1295.067017,636.337952 
	C1294.635986,647.988037 1290.505859,657.864075 1282.825928,666.913696 
	C1272.419922,679.175781 1258.974609,684.397705 1243.850098,684.668823 
	C1235.086792,684.825928 1226.151733,682.133240 1217.495361,679.931519 
	C1204.658936,676.666809 1192.017334,672.642700 1179.263672,669.044983 
	C1159.801270,663.554626 1140.321045,658.127136 1120.830444,652.737793 
	C1117.635376,651.854370 1114.308472,651.449036 1111.110474,650.574280 
	C1095.598999,646.330994 1080.109741,642.006226 1064.614258,637.704285 
	C1046.952881,632.800964 1029.285645,627.918884 1011.635315,622.976440 
	C993.401306,617.870361 975.207825,612.617676 956.952271,607.590393 
	C943.504700,603.887146 929.940247,600.605713 916.511963,596.836609 
	C903.912476,593.300110 891.478699,589.171326 878.870850,585.667053 
	C865.160950,581.856262 851.292908,578.615356 837.573242,574.837585 
	C828.467041,572.330261 819.511414,569.279480 810.466064,566.545776 
	C806.510803,565.350342 802.498718,564.342896 798.514160,563.244080 
	C781.893494,558.660950 765.293030,554.003052 748.647888,549.510559 
	C730.525085,544.619141 712.397034,539.739136 694.203674,535.120117 
	C679.758057,531.452454 665.354553,527.179321 650.660095,525.080139 
	C640.136841,523.576782 629.142151,524.876831 618.395874,525.541382 
	C600.146240,526.669800 583.600159,533.715271 567.332031,541.381104 
	C563.599915,543.139709 560.218323,545.642029 556.032593,547.855347 
	C554.709534,546.770569 553.405762,545.588318 553.482605,544.503845 
	C553.629028,542.436523 554.603027,540.435852 555.162903,538.388306 
	C556.935791,531.903625 558.733887,525.424805 560.390869,518.910278 
	C560.834656,517.165466 560.756287,515.293884 561.012878,513.494019 
	C561.337891,511.214081 561.856079,508.959198 562.123962,506.673950 
	C563.297852,496.662079 570.313782,488.051880 569.116638,477.453064 
	C569.016541,476.567047 569.727234,475.602997 570.003845,474.658417 
	C571.013489,471.211304 571.982300,467.752228 572.999878,464.307526 
	C573.546997,462.455170 574.152222,460.619629 574.748901,458.782227 
	C575.489380,456.501678 576.495667,454.272980 576.928589,451.936859 
	C577.348389,449.672180 577.102783,447.292816 577.295410,444.975952 
	C578.224182,433.807861 585.828613,424.267426 585.208008,412.695312 
	C585.168823,411.964508 585.868469,411.209534 586.164673,410.442749 
	C587.766296,406.296936 589.870056,402.260986 590.834961,397.970032 
	C593.188110,387.504761 594.751953,376.861237 597.135010,366.403778 
	C598.812927,359.040710 601.392273,351.887085 603.424683,344.599670 
	C605.378418,337.594238 607.326355,330.578217 608.948425,323.491669 
	C610.786316,315.462433 611.952393,307.272491 613.961426,299.291077 
	C617.032227,287.091370 620.814026,275.069977 623.851074,262.862701 
	C626.957153,250.378143 629.423645,237.735764 632.389709,225.214508 
	C633.519531,220.444946 635.968079,215.907028 636.558044,211.108932 
	C637.472656,203.670135 641.286804,197.578415 644.346863,191.134720 
	C646.756714,186.060440 652.105347,182.447983 651.714600,175.920975 
	C651.657043,174.958603 652.933777,173.976318 653.375549,172.912842 
	C654.703552,169.716522 655.856445,166.446793 657.208374,163.261200 
	C658.239136,160.832489 659.258789,158.355682 660.658020,156.136475 
	C662.984619,152.446426 665.607971,148.943222 668.112976,145.366043 
	C673.584778,137.552429 679.077393,129.753372 684.524292,121.922470 
	C686.041016,119.741951 687.255127,117.332413 688.911072,115.271317 
	C691.856689,111.604889 694.870789,107.964020 698.165161,104.616379 
	C700.815918,101.922668 704.030945,99.793503 706.801270,97.205879 
	C710.756653,93.511436 714.509827,89.601395 718.404541,85.840614 
	C719.459778,84.821602 721.234009,84.251923 721.791382,83.060966 
	C725.070129,76.054977 731.743103,72.629684 737.044373,67.714951 
	C739.728760,65.226257 741.361328,61.229675 742.507507,57.610264 
	C743.093689,55.759060 741.560608,53.236752 740.985352,51.017746 
z"/>
<path fill="white" opacity="1.000000" stroke="none" 
	d="
M740.617920,50.932785 
	C741.560608,53.236752 743.093689,55.759060 742.507507,57.610264 
	C741.361328,61.229675 739.728760,65.226257 737.044373,67.714951 
	C731.743103,72.629684 725.070129,76.054977 721.791382,83.060966 
	C721.234009,84.251923 719.459778,84.821602 718.404541,85.840614 
	C714.509827,89.601395 710.756653,93.511436 706.801270,97.205879 
	C704.030945,99.793503 700.815918,101.922668 698.165161,104.616379 
	C694.870789,107.964020 691.856689,111.604889 688.911072,115.271317 
	C687.255127,117.332413 686.041016,119.741951 684.524292,121.922470 
	C679.077393,129.753372 673.584778,137.552429 668.112976,145.366043 
	C665.607971,148.943222 662.984619,152.446426 660.658020,156.136475 
	C659.258789,158.355682 658.239136,160.832489 657.208374,163.261200 
	C655.856445,166.446793 654.703552,169.716522 653.375549,172.912842 
	C652.933777,173.976318 651.657043,174.958603 651.714600,175.920975 
	C652.105347,182.447983 646.756714,186.060440 644.346863,191.134720 
	C641.286804,197.578415 637.472656,203.670135 636.558044,211.108932 
	C635.968079,215.907028 633.519531,220.444946 632.389709,225.214508 
	C629.423645,237.735764 626.957153,250.378143 623.851074,262.862701 
	C620.814026,275.069977 617.032227,287.091370 613.961426,299.291077 
	C611.952393,307.272491 610.786316,315.462433 608.948425,323.491669 
	C607.326355,330.578217 605.378418,337.594238 603.424683,344.599670 
	C601.392273,351.887085 598.812927,359.040710 597.135010,366.403778 
	C594.751953,376.861237 593.188110,387.504761 590.834961,397.970032 
	C589.870056,402.260986 587.766296,406.296936 586.164673,410.442749 
	C585.868469,411.209534 585.168823,411.964508 585.208008,412.695312 
	C585.828613,424.267426 578.224182,433.807861 577.295410,444.975952 
	C577.102783,447.292816 577.348389,449.672180 576.928589,451.936859 
	C576.495667,454.272980 575.489380,456.501678 574.748901,458.782227 
	C574.152222,460.619629 573.546997,462.455170 572.999878,464.307526 
	C571.982300,467.752228 571.013489,471.211304 570.003845,474.658417 
	C569.727234,475.602997 569.016541,476.567047 569.116638,477.453064 
	C570.313782,488.051880 563.297852,496.662079 562.123962,506.673950 
	C561.856079,508.959198 561.337891,511.214081 561.012878,513.494019 
	C560.756287,515.293884 560.834656,517.165466 560.390869,518.910278 
	C558.733887,525.424805 556.935791,531.903625 555.162903,538.388306 
	C554.603027,540.435852 553.629028,542.436523 553.482605,544.503845 
	C553.405762,545.588318 554.709534,546.770569 555.710083,547.967651 
	C548.922668,553.603821 541.110718,558.498352 534.880859,564.926147 
	C526.577759,573.493103 519.508118,583.255127 511.895233,592.492798 
	C511.490112,592.984375 510.961060,593.373840 510.140076,593.900330 
	C514.011841,578.408875 518.215332,562.823059 522.460266,547.248596 
	C525.862976,534.763977 529.331055,522.297180 532.741211,509.814636 
	C535.145020,501.015717 537.612549,492.231964 539.850159,483.390442 
	C542.905823,471.315857 545.747437,459.187225 548.721802,447.091888 
	C552.535645,431.583160 556.432556,416.094818 560.216492,400.578827 
	C564.827698,381.670288 569.308044,362.729736 573.940308,343.826385 
	C577.720764,328.398712 581.736023,313.028259 585.465698,297.588562 
	C587.838196,287.767273 589.759644,277.837280 592.107483,268.009613 
	C593.879150,260.593658 595.871765,253.223557 598.002258,245.901779 
	C602.822571,229.335541 606.618164,212.341690 613.019043,196.400482 
	C619.672852,179.829391 628.056152,163.784714 637.255920,148.453629 
	C645.574036,134.591843 655.808899,121.848907 665.566711,108.889862 
	C680.195068,89.462524 698.639465,73.920746 717.597229,58.961597 
	C721.237671,56.088989 725.004028,53.375904 728.920471,50.320122 
	C732.835938,50.316624 736.543152,50.582218 740.617920,50.932785 
z"/>
<path fill="white" opacity="1.000000" stroke="none" 
	d="
M755.791016,54.771183 
	C755.251465,54.961395 754.491150,54.967789 753.350830,54.952057 
	C753.837280,54.815742 754.703735,54.701553 755.791016,54.771183 
z"/>
<path fill="white" opacity="1.000000" stroke="none" 
	d="
M729.261230,48.942528 
	C729.439880,48.673416 729.900391,48.366589 730.639343,48.023132 
	C730.459534,48.292606 730.001282,48.598709 729.261230,48.942528 
z"/>
</svg>